<?xml version="1.0" encoding="UTF-8"?>
<svg xmlns="http://www.w3.org/2000/svg" width="17.5cm" height="21.49167cm" viewBox="0 0 661.417 812.283" role="img">
  <title>The harness turns intent into a file the next run can open</title>
  <defs>
    <marker id="arrow-down" markerUnits="userSpaceOnUse" markerWidth="10" markerHeight="8" refX="9" refY="4" orient="auto">
      <path d="M0,0 L10,4 L0,8 Z" fill="#1E3A5F"/>
    </marker>
    <marker id="arrow-return" markerUnits="userSpaceOnUse" markerWidth="10" markerHeight="8" refX="9" refY="4" orient="auto">
      <path d="M0,0 L10,4 L0,8 Z" fill="#1E3A5F"/>
    </marker>
    <marker id="arrow-flow" markerUnits="userSpaceOnUse" markerWidth="8" markerHeight="7" refX="7" refY="3.5" orient="auto">
      <path d="M0,0 L8,3.5 L0,7 Z" fill="#1E3A5F"/>
    </marker>
  </defs>
  <rect x="0" y="0" width="661.42" height="812.28" fill="#FFFFFF"/>
  <text x="330.71" y="82.14" text-anchor="middle" fill="#1A1A1A" font-family="Arial, Helvetica, sans-serif" font-size="16.000" font-weight="700">The harness turns intent into a file the next run can open</text>
  <rect  x="66.14" y="98.14" width="499.13" height="78.00" rx="12" fill="#E8F1FC" stroke="#2B6CB0" stroke-width="2"/>
  <g transform="translate(78.14 124.14)"><rect fill="none" stroke="#2B6CB0" stroke-width="1.7" stroke-linejoin="round" stroke-linecap="round" x="6" y="5" width="14" height="17" rx="2"/><path fill="none" stroke="#2B6CB0" stroke-width="1.7" stroke-linejoin="round" stroke-linecap="round" d="M10 5 V4 H16 V5 M9 12 L12 15 L17 9"/></g>
  <text x="315.71" y="126.14" text-anchor="middle" fill="#2B6CB0" font-family="Arial, Helvetica, sans-serif" font-size="14.333" font-weight="700">Intake</text>
  <rect x="235.78" y="138.14" width="59.94" height="20.0" rx="8" fill="#FFFFFF" stroke="#2B6CB0" stroke-width="1.4"/>
  <text x="265.75" y="152.14" text-anchor="middle" fill="#1A1A1A" font-family="Arial, Helvetica, sans-serif" font-size="11.333" font-weight="400">Work type</text>
  <rect x="301.72" y="138.14" width="33.31" height="20.0" rx="8" fill="#FFFFFF" stroke="#2B6CB0" stroke-width="1.4"/>
  <text x="318.37" y="152.14" text-anchor="middle" fill="#1A1A1A" font-family="Arial, Helvetica, sans-serif" font-size="11.333" font-weight="400">Risk</text>
  <rect x="341.03" y="138.14" width="54.61" height="20.0" rx="8" fill="#FFFFFF" stroke="#2B6CB0" stroke-width="1.4"/>
  <text x="368.33" y="152.14" text-anchor="middle" fill="#1A1A1A" font-family="Arial, Helvetica, sans-serif" font-size="11.333" font-weight="400">Artefact</text>
  <line x1="315.71" y1="179.14" x2="315.71" y2="197.14" stroke="#1E3A5F" stroke-width="1.6" marker-end="url(#arrow-down)"/>
  <rect  x="66.14" y="202.14" width="499.13" height="78.00" rx="12" fill="#E5F6F5" stroke="#1A7A78" stroke-width="2"/>
  <g transform="translate(78.14 228.14)"><ellipse fill="none" stroke="#1A7A78" stroke-width="1.7" stroke-linejoin="round" stroke-linecap="round" cx="13" cy="7" rx="7" ry="3"/><path fill="none" stroke="#1A7A78" stroke-width="1.7" stroke-linejoin="round" stroke-linecap="round" d="M6 7 V17 C6 18.7 9.1 20 13 20 C16.9 20 20 18.7 20 17 V7"/><path fill="none" stroke="#1A7A78" stroke-width="1.7" stroke-linejoin="round" stroke-linecap="round" d="M6 12 C6 13.7 9.1 15 13 15 C16.9 15 20 13.7 20 12"/></g>
  <text x="315.71" y="230.14" text-anchor="middle" fill="#1A7A78" font-family="Arial, Helvetica, sans-serif" font-size="14.333" font-weight="700">Context</text>
  <rect x="217.14" y="242.14" width="54.61" height="20.0" rx="8" fill="#FFFFFF" stroke="#1A7A78" stroke-width="1.4"/>
  <text x="244.44" y="256.14" text-anchor="middle" fill="#1A1A1A" font-family="Arial, Helvetica, sans-serif" font-size="11.333" font-weight="400">Repo map</text>
  <rect x="277.75" y="242.14" width="59.94" height="20.0" rx="8" fill="#FFFFFF" stroke="#1A7A78" stroke-width="1.4"/>
  <text x="307.72" y="256.14" text-anchor="middle" fill="#1A1A1A" font-family="Arial, Helvetica, sans-serif" font-size="11.333" font-weight="400">Decisions</text>
  <rect x="343.69" y="242.14" width="70.59" height="20.0" rx="8" fill="#FFFFFF" stroke="#1A7A78" stroke-width="1.4"/>
  <text x="378.99" y="256.14" text-anchor="middle" fill="#1A1A1A" font-family="Arial, Helvetica, sans-serif" font-size="11.333" font-weight="400">Prior plans</text>
  <line x1="315.71" y1="283.14" x2="315.71" y2="301.14" stroke="#1E3A5F" stroke-width="1.6" marker-end="url(#arrow-down)"/>
  <rect  x="66.14" y="306.14" width="499.13" height="78.00" rx="12" fill="#E7F6EC" stroke="#2F7D4A" stroke-width="2"/>
  <g transform="translate(78.14 332.14)"><rect fill="none" stroke="#2F7D4A" stroke-width="1.7" stroke-linejoin="round" stroke-linecap="round" x="6" y="5" width="14" height="17" rx="2"/><path fill="none" stroke="#2F7D4A" stroke-width="1.7" stroke-linejoin="round" stroke-linecap="round" d="M10 5 V4 H16 V5 M9 12 L12 15 L17 9"/></g>
  <text x="315.71" y="334.14" text-anchor="middle" fill="#2F7D4A" font-family="Arial, Helvetica, sans-serif" font-size="14.333" font-weight="700">Plan</text>
  <rect x="214.47" y="346.14" width="65.27" height="20.0" rx="8" fill="#FFFFFF" stroke="#2F7D4A" stroke-width="1.4"/>
  <text x="247.11" y="360.14" text-anchor="middle" fill="#1A1A1A" font-family="Arial, Helvetica, sans-serif" font-size="11.333" font-weight="400">Acceptance</text>
  <rect x="285.74" y="346.14" width="54.61" height="20.0" rx="8" fill="#FFFFFF" stroke="#2F7D4A" stroke-width="1.4"/>
  <text x="313.05" y="360.14" text-anchor="middle" fill="#1A1A1A" font-family="Arial, Helvetica, sans-serif" font-size="11.333" font-weight="400">Evidence</text>
  <rect x="346.35" y="346.14" width="70.59" height="20.0" rx="8" fill="#FFFFFF" stroke="#2F7D4A" stroke-width="1.4"/>
  <text x="381.65" y="360.14" text-anchor="middle" fill="#1A1A1A" font-family="Arial, Helvetica, sans-serif" font-size="11.333" font-weight="400">Finish line</text>
  <line x1="315.71" y1="387.14" x2="315.71" y2="405.14" stroke="#1E3A5F" stroke-width="1.6" marker-end="url(#arrow-down)"/>
  <rect  x="66.14" y="410.14" width="499.13" height="128.00" rx="12" fill="#F3EAF8" stroke="#6B3FA0" stroke-width="2"/>
  <g transform="translate(80.14 428.14)"><rect fill="none" stroke="#6B3FA0" stroke-width="1.7" stroke-linejoin="round" stroke-linecap="round" x="7" y="7" width="12" height="12" rx="2"/><path fill="none" stroke="#6B3FA0" stroke-width="1.7" stroke-linejoin="round" stroke-linecap="round" d="M10 7 V4 M16 7 V4 M10 19 V22 M16 19 V22 M7 10 H4 M7 16 H4 M19 10 H22 M19 16 H22"/></g>
  <text x="112.14" y="478.14" text-anchor="middle" fill="#6B3FA0" font-family="Arial, Helvetica, sans-serif" font-size="13.333" font-weight="700">Execute</text>
  <rect  x="152.14" y="418.14" width="72.00" height="112.00" rx="8" fill="#FFFFFF" stroke="#6B3FA0" stroke-width="2"/>
  <text x="188.14" y="478.14" text-anchor="middle" fill="#6B3FA0" font-family="Arial, Helvetica, sans-serif" font-size="11.333" font-weight="700">Skill</text>
  <rect  x="479.28" y="418.14" width="78.00" height="112.00" rx="8" fill="#FFFFFF" stroke="#6B3FA0" stroke-width="2"/>
  <text x="518.28" y="478.14" text-anchor="middle" fill="#6B3FA0" font-family="Arial, Helvetica, sans-serif" font-size="11.333" font-weight="700">Runtime</text>
  <line x1="224.14" y1="446.14" x2="236.14" y2="446.14" stroke="#6B3FA0" stroke-width="1.3" marker-end="url(#arrow-flow)"/>
  <rect  x="236.14" y="432.14" width="97.57" height="28.00" rx="7" fill="#FFFFFF" stroke="#6B3FA0" stroke-width="1.4"/>
  <text x="284.93" y="449.64" text-anchor="middle" fill="#1A1A1A" font-family="Arial, Helvetica, sans-serif" font-size="11.333" font-weight="400">MCP call</text>
  <line x1="333.71" y1="446.14" x2="345.71" y2="446.14" stroke="#6B3FA0" stroke-width="1.3" marker-end="url(#arrow-flow)"/>
  <rect  x="345.71" y="432.14" width="97.57" height="28.00" rx="7" fill="#FFFFFF" stroke="#6B3FA0" stroke-width="1.4"/>
  <text x="394.49" y="449.64" text-anchor="middle" fill="#1A1A1A" font-family="Arial, Helvetica, sans-serif" font-size="11.333" font-weight="400">Live data</text>
  <line x1="443.28" y1="446.14" x2="479.28" y2="446.14" stroke="#6B3FA0" stroke-width="1.3" marker-end="url(#arrow-flow)"/>
  <line x1="224.14" y1="502.14" x2="236.14" y2="502.14" stroke="#6B3FA0" stroke-width="1.3" marker-end="url(#arrow-flow)"/>
  <rect  x="236.14" y="488.14" width="97.57" height="28.00" rx="7" fill="#FFFFFF" stroke="#6B3FA0" stroke-width="1.4"/>
  <text x="284.93" y="505.64" text-anchor="middle" fill="#1A1A1A" font-family="Arial, Helvetica, sans-serif" font-size="11.333" font-weight="400">Shell / files</text>
  <line x1="333.71" y1="502.14" x2="345.71" y2="502.14" stroke="#6B3FA0" stroke-width="1.3" marker-end="url(#arrow-flow)"/>
  <rect  x="345.71" y="488.14" width="97.57" height="28.00" rx="7" fill="#FFFFFF" stroke="#6B3FA0" stroke-width="1.4"/>
  <text x="394.49" y="505.64" text-anchor="middle" fill="#1A1A1A" font-family="Arial, Helvetica, sans-serif" font-size="11.333" font-weight="400">Side effect</text>
  <line x1="443.28" y1="502.14" x2="479.28" y2="502.14" stroke="#6B3FA0" stroke-width="1.3" marker-end="url(#arrow-flow)"/>
  <line x1="315.71" y1="541.14" x2="315.71" y2="559.14" stroke="#1E3A5F" stroke-width="1.6" marker-end="url(#arrow-down)"/>
  <rect  x="66.14" y="564.14" width="499.13" height="78.00" rx="12" fill="#FFF6E8" stroke="#C47B16" stroke-width="2"/>
  <g transform="translate(78.14 590.14)"><circle fill="none" stroke="#C47B16" stroke-width="1.7" stroke-linejoin="round" stroke-linecap="round" cx="11" cy="11" r="5.5"/><path fill="none" stroke="#C47B16" stroke-width="1.7" stroke-linejoin="round" stroke-linecap="round" d="M15.2 15.2 L21 21"/></g>
  <text x="315.71" y="592.14" text-anchor="middle" fill="#C47B16" font-family="Arial, Helvetica, sans-serif" font-size="14.333" font-weight="700">Verification</text>
  <rect x="243.77" y="604.14" width="33.31" height="20.0" rx="8" fill="#FFFFFF" stroke="#C47B16" stroke-width="1.4"/>
  <text x="260.42" y="618.14" text-anchor="middle" fill="#1A1A1A" font-family="Arial, Helvetica, sans-serif" font-size="11.333" font-weight="400">Lint</text>
  <rect x="283.08" y="604.14" width="43.96" height="20.0" rx="8" fill="#FFFFFF" stroke="#C47B16" stroke-width="1.4"/>
  <text x="305.06" y="618.14" text-anchor="middle" fill="#1A1A1A" font-family="Arial, Helvetica, sans-serif" font-size="11.333" font-weight="400">Critic</text>
  <rect x="333.04" y="604.14" width="54.61" height="20.0" rx="8" fill="#FFFFFF" stroke="#C47B16" stroke-width="1.4"/>
  <text x="360.34" y="618.14" text-anchor="middle" fill="#1A1A1A" font-family="Arial, Helvetica, sans-serif" font-size="11.333" font-weight="400">Evidence</text>
  <line x1="315.71" y1="645.14" x2="315.71" y2="663.14" stroke="#1E3A5F" stroke-width="1.6" marker-end="url(#arrow-down)"/>
  <rect  x="66.14" y="668.14" width="499.13" height="78.00" rx="12" fill="#FFF1E8" stroke="#D35400" stroke-width="2"/>
  <g transform="translate(78.14 694.14)"><rect fill="none" stroke="#D35400" stroke-width="1.7" stroke-linejoin="round" stroke-linecap="round" x="6" y="5" width="14" height="17" rx="2"/><path fill="none" stroke="#D35400" stroke-width="1.7" stroke-linejoin="round" stroke-linecap="round" d="M10 5 V4 H16 V5 M9 12 L12 15 L17 9"/></g>
  <text x="315.71" y="696.14" text-anchor="middle" fill="#D35400" font-family="Arial, Helvetica, sans-serif" font-size="14.333" font-weight="700">Record</text>
  <rect x="230.45" y="708.14" width="54.61" height="20.0" rx="8" fill="#FFFFFF" stroke="#D35400" stroke-width="1.4"/>
  <text x="257.76" y="722.14" text-anchor="middle" fill="#1A1A1A" font-family="Arial, Helvetica, sans-serif" font-size="11.333" font-weight="400">Decision</text>
  <rect x="291.07" y="708.14" width="27.98" height="20.0" rx="8" fill="#FFFFFF" stroke="#D35400" stroke-width="1.4"/>
  <text x="305.06" y="722.14" text-anchor="middle" fill="#1A1A1A" font-family="Arial, Helvetica, sans-serif" font-size="11.333" font-weight="400">ADR</text>
  <rect x="325.05" y="708.14" width="75.92" height="20.0" rx="8" fill="#FFFFFF" stroke="#D35400" stroke-width="1.4"/>
  <text x="363.01" y="722.14" text-anchor="middle" fill="#1A1A1A" font-family="Arial, Helvetica, sans-serif" font-size="11.333" font-weight="400">Next context</text>
  <path d="M 565.28 603.14 H 571.28 Q 581.28 603.14 581.28 593.14 V 355.14 Q 581.28 345.14 571.28 345.14 H 565.28" fill="none" stroke="#1E3A5F" stroke-width="1.6" marker-end="url(#arrow-return)"/>
</svg>
